# xmcd
#
# Track frame offsets: 
#        150
#        7370
#        31399
#        47437
#        64706
#        67331
#        88853
#        105786
#        132115
#        151337
#        162100
#        186454
#        212790
#        230031
#        249335
#        272624
#        290041
#
# Disc length: 4095 seconds
#
# Revision: 1
# Processed by: cddbd v1.5.2PL0 Copyright (c) Steve Scherf et al.
# Submitted via: ExactAudioCopy v1.3
#
DISCID=f60ffd11
DTITLE=Грани - Алкоголики
DYEAR=2003
DGENRE=Rap
TTITLE0=Опачки (Вот И Мы)
TTITLE1=Алкоголики (Оригинал)
TTITLE2=Планерка
TTITLE3=Мелодрама (Оригинал)
TTITLE4=Вы Не Слышали Граней?
TTITLE5=Под Вечным Огнём
TTITLE6=Дроже Золота
TTITLE7=Алкоголики feat. Чипс [Апачи] (Лабораторная Версия)
TTITLE8=Мелодрама (Ремикс Шыма)
TTITLE9=Ростов-Город, Ростов-Дон
TTITLE10=Алкоголики (Оригинал-Минус)
TTITLE11=Алкоголики (Лабораторный Минус)
TTITLE12=Мелодрама (Оригинал-Минус)
TTITLE13=Мелодрама (Ремикс-Минус)
TTITLE14=Алкоголики (Акапелла)
TTITLE15=Мелодрама (Акапелла)
TTITLE16=Мелодрама (Ремикс от Big Black Boots)
EXTD=
EXTT0=
EXTT1=
EXTT2=
EXTT3=
EXTT4=
EXTT5=
EXTT6=
EXTT7=
EXTT8=
EXTT9=
EXTT10=
EXTT11=
EXTT12=
EXTT13=
EXTT14=
EXTT15=
EXTT16=
PLAYORDER=
